<svg width="118" height="27" viewBox="0 0 118 27" fill="none" xmlns="http://www.w3.org/2000/svg">
<path d="M10.592 26.432C14.084 26.432 16.676 25.064 18.476 22.832L15.344 20.06C13.832 21.464 12.5 22.04 10.664 22.04C8.216 22.04 6.488 20.744 5.948 18.26H19.376C19.412 17.756 19.448 17.252 19.448 16.82C19.448 11.348 16.496 6.344 10.052 6.344C4.436 6.344 0.512 10.88 0.512 16.388V16.46C0.512 22.364 4.796 26.432 10.592 26.432ZM5.876 14.84C6.308 12.356 7.784 10.736 10.052 10.736C12.356 10.736 13.796 12.392 14.12 14.84H5.876Z" fill="#AA67FF"/>
<path d="M33.0661 26.36C38.5021 26.36 42.3181 23.552 42.3181 18.548V18.476C42.3181 14.084 39.4381 12.248 34.3261 10.916C29.9701 9.8 28.8901 9.26 28.8901 7.604V7.532C28.8901 6.308 30.0061 5.336 32.1301 5.336C34.2541 5.336 36.4501 6.272 38.6821 7.82L41.5621 3.644C39.0061 1.592 35.8741 0.439999 32.2021 0.439999C27.0541 0.439999 23.3821 3.464 23.3821 8.036V8.108C23.3821 13.112 26.6581 14.516 31.7341 15.812C35.9461 16.892 36.8101 17.612 36.8101 19.016V19.088C36.8101 20.564 35.4421 21.464 33.1741 21.464C30.2941 21.464 27.9181 20.276 25.6501 18.404L22.3741 22.328C25.3981 25.028 29.2501 26.36 33.0661 26.36ZM52.8937 26.324C54.7297 26.324 56.0617 25.892 57.2137 25.208V20.816C56.4217 21.248 55.5217 21.5 54.5137 21.5C53.2897 21.5 52.7497 20.888 52.7497 19.628V11.384H57.2857V6.704H52.7497V1.772H47.2777V6.704H44.9737V11.384H47.2777V20.528C47.2777 24.992 49.5457 26.324 52.8937 26.324ZM70.2598 26.432C76.2718 26.432 80.7358 21.932 80.7358 16.388V16.316C80.7358 10.772 76.3078 6.344 70.3318 6.344C64.3198 6.344 59.8558 10.844 59.8558 16.388V16.46C59.8558 22.004 64.2838 26.432 70.2598 26.432ZM70.3318 21.716C67.3078 21.716 65.2558 19.232 65.2558 16.388V16.316C65.2558 13.472 67.1278 11.06 70.2598 11.06C73.2838 11.06 75.3358 13.544 75.3358 16.388V16.46C75.3358 19.304 73.4638 21.716 70.3318 21.716ZM84.698 26H90.17V18.872C90.17 14.264 92.402 12.068 96.038 12.068H96.326V6.344C93.086 6.2 91.286 7.928 90.17 10.592V6.704H84.698V26ZM108.362 26.432C111.854 26.432 114.446 25.064 116.246 22.832L113.114 20.06C111.602 21.464 110.27 22.04 108.434 22.04C105.986 22.04 104.258 20.744 103.718 18.26H117.146C117.182 17.756 117.218 17.252 117.218 16.82C117.218 11.348 114.266 6.344 107.822 6.344C102.206 6.344 98.2815 10.88 98.2815 16.388V16.46C98.2815 22.364 102.566 26.432 108.362 26.432ZM103.646 14.84C104.078 12.356 105.554 10.736 107.822 10.736C110.126 10.736 111.566 12.392 111.89 14.84H103.646Z" fill="white"/>
</svg>
