<svg width="28" height="28" viewBox="0 0 28 28" fill="none" xmlns="http://www.w3.org/2000/svg">
<path d="M13.0606 8H14.0276C14.1136 8 14.1566 8.04298 14.1566 8.12894V19.4757C14.1566 19.5617 14.1136 19.6047 14.0276 19.6047H13.0606C12.9746 19.6047 12.9316 19.5617 12.9316 19.4757V8.12894C12.9316 8.04298 12.9746 8 13.0606 8Z" fill="white"/>
<path d="M8.12894 13.1895H18.9599C19.0459 13.1895 19.0889 13.2324 19.0889 13.3184V14.2854C19.0889 14.3714 19.0459 14.4144 18.9599 14.4144H8.12894C8.04298 14.4144 8 14.3714 8 14.2854V13.3184C8 13.2324 8.04298 13.1895 8.12894 13.1895Z" fill="white"/>
<rect x="0.5" y="0.5" width="27" height="27" stroke="#AA67FF"/>
</svg>
