<svg width="28" height="28" viewBox="0 0 28 28" fill="none" xmlns="http://www.w3.org/2000/svg">
<path d="M17.2353 17.8825H9.47058C9.3647 17.8825 9.25882 17.8119 9.18823 17.7413C9.11764 17.6707 9.11764 17.5296 9.15294 17.4237L9.82352 15.7296L9.15294 9.41193H7V8.70605H9.47058C9.64705 8.70605 9.78823 8.84723 9.82352 9.0237L10.5294 15.7296C10.5294 15.8002 10.5294 15.8354 10.4941 15.906L9.99999 17.1766H17.5882L17.2353 17.8825Z" fill="white"/>
<path d="M10.2468 16.1181L10.1056 15.4123L18.2938 13.7182V10.824H9.82324V10.1182H18.6467C18.8585 10.1182 18.9997 10.2593 18.9997 10.4711V14.0005C18.9997 14.177 18.8938 14.3182 18.7173 14.3534L10.2468 16.1181Z" fill="white"/>
<path d="M17.5885 20.0003C16.8121 20.0003 16.1768 19.365 16.1768 18.5885C16.1768 17.8121 16.8121 17.1768 17.5885 17.1768C18.365 17.1768 19.0003 17.8121 19.0003 18.5885C19.0003 19.365 18.365 20.0003 17.5885 20.0003ZM17.5885 17.8826C17.2003 17.8826 16.8826 18.2003 16.8826 18.5885C16.8826 18.9768 17.2003 19.2944 17.5885 19.2944C17.9768 19.2944 18.2944 18.9768 18.2944 18.5885C18.2944 18.2003 17.9768 17.8826 17.5885 17.8826Z" fill="white"/>
<path d="M9.11782 20.0003C8.34135 20.0003 7.70605 19.365 7.70605 18.5885C7.70605 17.8121 8.34135 17.1768 9.11782 17.1768C9.89428 17.1768 10.5296 17.8121 10.5296 18.5885C10.5296 19.365 9.89428 20.0003 9.11782 20.0003ZM9.11782 17.8826C8.72958 17.8826 8.41193 18.2003 8.41193 18.5885C8.41193 18.9768 8.72958 19.2944 9.11782 19.2944C9.50605 19.2944 9.8237 18.9768 9.8237 18.5885C9.8237 18.2003 9.50605 17.8826 9.11782 17.8826Z" fill="white"/>
<rect x="0.5" y="0.5" width="27" height="27" stroke="#AA67FF"/>
</svg>
