<svg width="24" height="23" viewBox="0 0 24 23" fill="none" xmlns="http://www.w3.org/2000/svg">
<path d="M20.2275 18.4748H4.8825C4.67325 18.4748 4.464 18.3353 4.3245 18.1958C4.185 18.0563 4.185 17.7773 4.25475 17.5681L5.58 14.2201L4.25475 1.73484H0V0.339844H4.8825C5.23125 0.339844 5.51025 0.618843 5.58 0.967593L6.975 14.2201C6.975 14.3596 6.975 14.4293 6.90525 14.5688L5.92875 17.0798H20.925L20.2275 18.4748Z" fill="white"/>
<path d="M6.41708 14.9874L6.13808 13.5924L22.3201 10.2444V4.52488H5.58008V3.12988H23.0176C23.4361 3.12988 23.7151 3.40888 23.7151 3.82738V10.8024C23.7151 11.1511 23.5058 11.4301 23.1571 11.4999L6.41708 14.9874Z" fill="white"/>
<path d="M20.9248 22.6601C19.3903 22.6601 18.1348 21.4046 18.1348 19.8701C18.1348 18.3356 19.3903 17.0801 20.9248 17.0801C22.4593 17.0801 23.7148 18.3356 23.7148 19.8701C23.7148 21.4046 22.4593 22.6601 20.9248 22.6601ZM20.9248 18.4751C20.1575 18.4751 19.5298 19.1028 19.5298 19.8701C19.5298 20.6373 20.1575 21.2651 20.9248 21.2651C21.692 21.2651 22.3198 20.6373 22.3198 19.8701C22.3198 19.1028 21.692 18.4751 20.9248 18.4751Z" fill="white"/>
<path d="M4.18453 22.6601C2.65003 22.6601 1.39453 21.4046 1.39453 19.8701C1.39453 18.3356 2.65003 17.0801 4.18453 17.0801C5.71903 17.0801 6.97453 18.3356 6.97453 19.8701C6.97453 21.4046 5.71903 22.6601 4.18453 22.6601ZM4.18453 18.4751C3.41728 18.4751 2.78953 19.1028 2.78953 19.8701C2.78953 20.6373 3.41728 21.2651 4.18453 21.2651C4.95178 21.2651 5.57953 20.6373 5.57953 19.8701C5.57953 19.1028 4.95178 18.4751 4.18453 18.4751Z" fill="white"/>
</svg>
