<svg width="22" height="21" viewBox="0 0 22 21" fill="none" xmlns="http://www.w3.org/2000/svg">
<path d="M11.2425 3.69664e-05C7.42135 -0.00973046 4.05871 1.91689 2.13685 4.82759C2.05166 4.95701 2.14687 5.12793 2.30473 5.12793H4.06623C4.1865 5.12793 4.29926 5.07666 4.37443 4.98631C4.54983 4.77875 4.73776 4.57852 4.93571 4.38805C5.75256 3.59445 6.70222 2.96933 7.75962 2.53468C8.8521 2.08538 10.0147 1.85585 11.215 1.85585C12.4152 1.85585 13.5778 2.08294 14.6703 2.53468C15.7277 2.96933 16.6774 3.59445 17.4942 4.38805C18.3111 5.18166 18.95 6.10712 19.3985 7.13514C19.8621 8.19979 20.0951 9.33037 20.0951 10.5C20.0951 11.6697 19.8596 12.8002 19.3985 13.8649C18.9525 14.8929 18.3111 15.8184 17.4942 16.612C16.6774 17.4056 15.7277 18.0307 14.6703 18.4654C13.577 18.9154 12.4018 19.1463 11.215 19.1442C10.0147 19.1442 8.8521 18.9147 7.75962 18.4654C6.70429 18.0311 5.74531 17.4018 4.93571 16.612C4.73776 16.4191 4.55234 16.2188 4.37443 16.0137C4.29926 15.9234 4.184 15.8721 4.06623 15.8721H2.30473C2.14687 15.8721 2.04915 16.043 2.13685 16.1724C4.05621 19.0758 7.40381 21 11.215 21C17.1334 21 21.9393 16.358 21.9994 10.6075C22.0596 4.7641 17.2462 0.0146881 11.2425 3.69664e-05ZM8.06832 13.2349V11.3791H0.200455C0.0902048 11.3791 0 11.2912 0 11.1837V9.8163C0 9.70886 0.0902048 9.62095 0.200455 9.62095H8.06832V7.76514C8.06832 7.60154 8.26376 7.50875 8.39406 7.6113L11.9496 10.3462C11.9736 10.3645 11.993 10.3878 12.0063 10.4145C12.0196 10.4411 12.0265 10.4704 12.0265 10.5C12.0265 10.5297 12.0196 10.5589 12.0063 10.5856C11.993 10.6122 11.9736 10.6356 11.9496 10.6539L8.39406 13.3887C8.26376 13.4888 8.06832 13.3985 8.06832 13.2349Z" fill="white"/>
</svg>
